<svg xmlns="http://www.w3.org/2000/svg" viewBox="0 0 64 61">
  <defs>
    <style>
      .green { fill: #93d500; }
      .blue { fill: #0083ad; }
    </style>
  </defs>
  <!-- Espiral Verde -->
  <path class="green" d="M63.92,33.29c-.12-.06-.13,3.92-3.1,9.92-1.51,2.95-3.85,6.34-7.37,9.36-3.5,3.02-8.21,5.64-13.81,6.8-5.56,1.16-12.03.83-18.02-1.8-5.99-2.57-11.36-7.55-14.41-14.01-3.07-6.41-3.69-14.31-1.19-21.37,2.46-7.06,8.14-13.06,15.24-15.85,7.04-2.86,15.37-2.47,21.95,1.14,6.62,3.55,11.27,10.21,12.51,17.27,1.33,7.08-.67,14.41-4.99,19.44-4.26,5.12-10.5,7.92-16.36,8.18-5.92.35-11.33-1.75-15.09-4.92-3.81-3.16-6-7.23-6.97-10.86-.97-3.66-.82-6.9-.39-9.28.45-2.38,1.13-3.96,1.49-4.75,2.9-6.45,8.73-10.17,13.15-11.45,4.49-1.37,7.59-1,7.63-1.49.09-.31-3.01-1.51-8.14-.57-2.53.48-5.49,1.6-8.3,3.63-2.8,2.01-5.4,4.98-7.07,8.64-.41.91-1.19,2.73-1.68,5.47-.47,2.72-.61,6.4.54,10.55,1.14,4.11,3.67,8.68,8,12.2,4.26,3.53,10.42,5.81,16.96,5.35,6.52-.37,13.37-3.55,17.99-9.24,4.7-5.6,6.77-13.66,5.24-21.3-1.44-7.64-6.54-14.73-13.69-18.46-7.11-3.79-15.95-4.07-23.35-.96-7.46,3.04-13.34,9.42-15.82,16.84-2.52,7.43-1.76,15.59,1.49,22.18,3.23,6.63,8.82,11.67,14.99,14.23,6.18,2.63,12.77,2.87,18.39,1.62,5.67-1.25,10.4-3.96,13.89-7.05,3.51-3.1,5.83-6.53,7.3-9.52,2.9-6.06,2.86-10.03,2.98-9.98Z"/>
  <!-- Espiral Azul -->
  <path class="blue" d="M0,26.3c.12.06.26-3.92,3.42-9.82,1.6-2.9,4.06-6.21,7.67-9.13,3.59-2.91,8.39-5.38,14.03-6.36,5.6-.98,12.06-.45,17.97,2.39,5.91,2.77,11.12,7.92,13.96,14.48,2.87,6.51,3.23,14.43.5,21.42-2.69,6.99-8.57,12.8-15.75,15.37-7.14,2.64-15.46,1.98-21.92-1.85-6.51-3.77-10.94-10.57-11.96-17.68-1.1-7.12,1.13-14.4,5.62-19.29,4.43-4.99,10.76-7.58,16.63-7.66,5.94-.16,11.28,2.11,14.93,5.41,3.71,3.29,5.77,7.43,6.62,11.09.86,3.69.6,6.93.09,9.29-.52,2.37-1.26,3.92-1.64,4.7-3.1,6.36-9.06,9.89-13.52,11.03-4.54,1.22-7.63.76-7.68,1.25-.1.31,2.96,1.61,8.13.83,2.55-.4,5.55-1.42,8.42-3.36,2.87-1.92,5.56-4.81,7.35-8.41.44-.9,1.28-2.69,1.86-5.42.56-2.7.82-6.38-.2-10.58-1.01-4.15-3.39-8.8-7.61-12.46-4.15-3.67-10.24-6.15-16.8-5.89-6.53.16-13.49,3.12-18.29,8.66-4.88,5.45-7.21,13.45-5.92,21.14,1.2,7.69,6.07,14.95,13.1,18.91,6.99,4.02,15.82,4.59,23.33,1.71,7.56-2.8,13.65-9,16.37-16.34,2.76-7.35,2.27-15.54-.78-22.24-3.01-6.74-8.44-11.96-14.53-14.72C37.3-.08,30.71-.54,25.04.53c-5.71,1.06-10.53,3.63-14.12,6.6-3.61,2.99-6.04,6.35-7.61,9.28C.21,22.38.12,26.36,0,26.3Z"/>
</svg>
